# xmcd
# 
# Track frame offsets:
#     150
#     9975
#     16997
#     27567
#     38135
#     48702
#     56495
#     67365
#     81607
#     92850
#     105967
#     115487
#     121405
#     128635
#     132305
#     136835
#     142490
#     150285
#     156427
#     161597
#     164027
#     171745
#     187940
#     192545
#     198500
#     201870
#     210037
#     215130
#     221572
#     227942
#     240310
#     244355
#     249747
#     255740
#     260497
#     267015
#     273855
# 
# Disc length: 3942
# 
# Revision: 3
# Processed by: cddbd v1.5.2PL0 Copyright (c) Steve Scherf et al.
# Submitted via: fre:ac v1.0.31
# 
DISCID=3a0f6425
DTITLE=KONAMI - ときめきメモリアル2 オリジナル・ゲーム・サントラ vol.2 DISC1
DYEAR=1999
DGENRE=Game
TTITLE0=覚えてますか？　～伝説の鐘
TTITLE1=野田順子／勇気の神様(ゲームバージョン)　～オープニングテーマ
TTITLE2=春を待ちわびて　～八重花桜梨テーマ曲“第一楽章”
TTITLE3=春を待ちわびて　～八重花桜梨テーマ曲“第二楽章”～雪どけの流れ～
TTITLE4=不幸のジジョー・・・　～寿美幸テーマ曲
TTITLE5=夕焼け純情ストリート　～一文字茜テーマ曲
TTITLE6=NEVER MIND！　～佐倉楓子テーマ曲
TTITLE7=ピエロのキモチ　～野咲すみれテーマ曲
TTITLE8=Delivery Love　～九段下舞佳テーマ曲
TTITLE9=なにげにLove Affair.　～坂城匠テーマ曲
TTITLE10=青春からはじめよう　～穂刈純一郎テーマ曲
TTITLE11=植物園　～グリーグ：ペール・ギュント第一組曲「朝」 より
TTITLE12=美術館　～チャイコフスキー：アンダンテ・カンタービレ より
TTITLE13=美術館 彫刻展　～バッハ：無伴奏チェロ組曲第1番 より
TTITLE14=動物園前 昼間　～サン=サーンス：動物の謝肉祭「終曲」 より
TTITLE15=小動物好き？　～動物園内
TTITLE16=動物園前 夕方　～サン=サーンス動物の謝肉祭「白鳥」 より
TTITLE17=展望台　～チャイコフスキー：バイオリン協奏曲 より
TTITLE18=マスコットキャッチャー　～ゲームセンター前
TTITLE19=GLOY　～ボーリング場内
TTITLE20=プール内　～リリウオカラーニ：アロハ・オエ より
TTITLE21=水族館　～ドビュッシー：アラベスク第1番 より
TTITLE22=ショッピングセンター X'mas　～ジェームズ.S.ペーアポント：ジングルベル より
TTITLE23=ブティック X'mas　～グルーバー：きよしこの夜 より
TTITLE24=ファンシーショップ X'mas　～賛美歌：諸人こぞりて より
TTITLE25=展望台 X'mas　～シューベルト：アヴェ・マリア より
TTITLE26=レストランでの生演奏　～賛美歌：もみの木 より
TTITLE27=伊集院家のX'masパーティー
TTITLE28=スケート場　～ドリーブ：コッペリア「スワニダのワルツ」 より
TTITLE29=SNOW天国　～スキー場
TTITLE30=正月自宅シーン(主人公)　～日本伝統芸能：神田囃子「獅子舞」 より
TTITLE31=神社の初詣　～伝来曲：平調・越天楽 より
TTITLE32=水族館ペンギンショー　～ヨセフ・ウインナー：茶色の小瓶 より
TTITLE33=サーカステント前　～フチック：雷鳴と稲妻 より
TTITLE34=空中ブランコ観覧　～ローサス：波濤を越えて より
TTITLE35=本井えみ／雲を追いかけて　～野咲すみれ 劇中歌
TTITLE36=向日葵（ひまわり）　～バッドエンディング(インストゥルメンタル)
EXTD=
EXTT0=
EXTT1=
EXTT2=
EXTT3=
EXTT4=
EXTT5=
EXTT6=
EXTT7=
EXTT8=
EXTT9=
EXTT10=
EXTT11=
EXTT12=
EXTT13=
EXTT14=
EXTT15=
EXTT16=
EXTT17=
EXTT18=
EXTT19=
EXTT20=
EXTT21=
EXTT22=
EXTT23=
EXTT24=
EXTT25=
EXTT26=
EXTT27=
EXTT28=
EXTT29=
EXTT30=
EXTT31=
EXTT32=
EXTT33=
EXTT34=
EXTT35=
EXTT36=
PLAYORDER=
